<svg xmlns="http://www.w3.org/2000/svg" height="512pt" version="1.1" viewBox="0 0 512 512" width="512pt">
<g id="surface1">
<path d="M 440.402344 6.863281 L 504.523438 6.863281 L 504.523438 70.984375 L 440.402344 70.984375 Z M 440.402344 6.863281 " style=" stroke:none;fill-rule:nonzero;fill:rgb(85.098039%,93.333333%,96.862745%);fill-opacity:1;" />
<path d="M 440.402344 439.691406 L 504.523438 439.691406 L 504.523438 503.816406 L 440.402344 503.816406 Z M 440.402344 439.691406 " style=" stroke:none;fill-rule:nonzero;fill:rgb(85.098039%,93.333333%,96.862745%);fill-opacity:1;" />
<path d="M 7.570312 439.691406 L 71.691406 439.691406 L 71.691406 503.816406 L 7.570312 503.816406 Z M 7.570312 439.691406 " style=" stroke:none;fill-rule:nonzero;fill:rgb(85.098039%,93.333333%,96.862745%);fill-opacity:1;" />
<path d="M 7.570312 6.863281 L 71.691406 6.863281 L 71.691406 70.984375 L 7.570312 70.984375 Z M 7.570312 6.863281 " style=" stroke:none;fill-rule:nonzero;fill:rgb(85.098039%,93.333333%,96.862745%);fill-opacity:1;" />
<path d="M 111.769531 103.046875 L 111.769531 151.140625 L 223.984375 159.15625 L 223.984375 415.644531 L 288.109375 415.644531 L 288.109375 159.15625 L 400.324219 151.140625 L 400.324219 103.046875 Z M 111.769531 103.046875 " style=" stroke:none;fill-rule:nonzero;fill:rgb(19.215686%,90.980392%,73.333333%);fill-opacity:1;" />
<path d="M 7.570312 6.863281 L 39.632812 6.863281 L 39.632812 70.984375 L 7.570312 70.984375 Z M 7.570312 6.863281 " style=" stroke:none;fill-rule:nonzero;fill:rgb(66.666667%,76.862745%,85.490196%);fill-opacity:1;" />
<path d="M 7.570312 439.691406 L 39.632812 439.691406 L 39.632812 503.816406 L 7.570312 503.816406 Z M 7.570312 439.691406 " style=" stroke:none;fill-rule:nonzero;fill:rgb(66.666667%,76.862745%,85.490196%);fill-opacity:1;" />
<path d="M 440.402344 439.691406 L 472.460938 439.691406 L 472.460938 503.816406 L 440.402344 503.816406 Z M 440.402344 439.691406 " style=" stroke:none;fill-rule:nonzero;fill:rgb(66.666667%,76.862745%,85.490196%);fill-opacity:1;" />
<path d="M 440.402344 6.863281 L 472.460938 6.863281 L 472.460938 70.984375 L 440.402344 70.984375 Z M 440.402344 6.863281 " style=" stroke:none;fill-rule:nonzero;fill:rgb(66.666667%,76.862745%,85.490196%);fill-opacity:1;" />
<path d="M 111.769531 103.046875 L 111.769531 151.140625 L 223.984375 159.15625 L 223.984375 415.644531 L 256.046875 415.644531 L 256.046875 103.046875 Z M 111.769531 103.046875 " style=" stroke:none;fill-rule:nonzero;fill:rgb(10.980392%,69.803922%,54.509804%);fill-opacity:1;" />
<path d="M 0 79.171875 L 79.167969 79.171875 L 79.167969 0 L 0 0 Z M 15.046875 15.046875 L 64.121094 15.046875 L 64.121094 64.121094 L 15.046875 64.121094 Z M 15.046875 15.046875 " style=" stroke:none;fill-rule:nonzero;fill:rgb(13.72549%,12.156863%,12.54902%);fill-opacity:1;" />
<path d="M 432.832031 0 L 432.832031 79.167969 L 512 79.167969 L 512 0 Z M 496.953125 64.125 L 447.878906 64.125 L 447.878906 15.046875 L 496.953125 15.046875 Z M 496.953125 64.125 " style=" stroke:none;fill-rule:nonzero;fill:rgb(13.72549%,12.156863%,12.54902%);fill-opacity:1;" />
<path d="M 0 512 L 79.167969 512 L 79.167969 432.828125 L 0 432.828125 Z M 15.046875 447.878906 L 64.121094 447.878906 L 64.121094 496.953125 L 15.046875 496.953125 Z M 15.046875 447.878906 " style=" stroke:none;fill-rule:nonzero;fill:rgb(13.72549%,12.156863%,12.54902%);fill-opacity:1;" />
<path d="M 432.832031 512 L 512 512 L 512 432.828125 L 432.832031 432.828125 Z M 447.878906 447.878906 L 496.953125 447.878906 L 496.953125 496.953125 L 447.878906 496.953125 Z M 447.878906 447.878906 " style=" stroke:none;fill-rule:nonzero;fill:rgb(13.72549%,12.156863%,12.54902%);fill-opacity:1;" />
<path d="M 103.707031 32.0625 L 119.738281 32.0625 L 119.738281 47.109375 L 103.707031 47.109375 Z M 103.707031 32.0625 " style=" stroke:none;fill-rule:nonzero;fill:rgb(13.72549%,12.156863%,12.54902%);fill-opacity:1;" />
<path d="M 135.769531 32.0625 L 151.800781 32.0625 L 151.800781 47.109375 L 135.769531 47.109375 Z M 135.769531 32.0625 " style=" stroke:none;fill-rule:nonzero;fill:rgb(13.72549%,12.156863%,12.54902%);fill-opacity:1;" />
<path d="M 167.832031 32.0625 L 183.859375 32.0625 L 183.859375 47.109375 L 167.832031 47.109375 Z M 167.832031 32.0625 " style=" stroke:none;fill-rule:nonzero;fill:rgb(13.72549%,12.156863%,12.54902%);fill-opacity:1;" />
<path d="M 199.890625 32.0625 L 215.921875 32.0625 L 215.921875 47.109375 L 199.890625 47.109375 Z M 199.890625 32.0625 " style=" stroke:none;fill-rule:nonzero;fill:rgb(13.72549%,12.156863%,12.54902%);fill-opacity:1;" />
<path d="M 231.953125 32.0625 L 247.984375 32.0625 L 247.984375 47.109375 L 231.953125 47.109375 Z M 231.953125 32.0625 " style=" stroke:none;fill-rule:nonzero;fill:rgb(13.72549%,12.156863%,12.54902%);fill-opacity:1;" />
<path d="M 264.015625 32.0625 L 280.046875 32.0625 L 280.046875 47.109375 L 264.015625 47.109375 Z M 264.015625 32.0625 " style=" stroke:none;fill-rule:nonzero;fill:rgb(13.72549%,12.156863%,12.54902%);fill-opacity:1;" />
<path d="M 296.078125 32.0625 L 312.105469 32.0625 L 312.105469 47.109375 L 296.078125 47.109375 Z M 296.078125 32.0625 " style=" stroke:none;fill-rule:nonzero;fill:rgb(13.72549%,12.156863%,12.54902%);fill-opacity:1;" />
<path d="M 328.136719 32.0625 L 344.167969 32.0625 L 344.167969 47.109375 L 328.136719 47.109375 Z M 328.136719 32.0625 " style=" stroke:none;fill-rule:nonzero;fill:rgb(13.72549%,12.156863%,12.54902%);fill-opacity:1;" />
<path d="M 360.199219 32.0625 L 376.230469 32.0625 L 376.230469 47.109375 L 360.199219 47.109375 Z M 360.199219 32.0625 " style=" stroke:none;fill-rule:nonzero;fill:rgb(13.72549%,12.156863%,12.54902%);fill-opacity:1;" />
<path d="M 392.261719 32.0625 L 408.292969 32.0625 L 408.292969 47.109375 L 392.261719 47.109375 Z M 392.261719 32.0625 " style=" stroke:none;fill-rule:nonzero;fill:rgb(13.72549%,12.156863%,12.54902%);fill-opacity:1;" />
<path d="M 103.707031 472.90625 L 119.738281 472.90625 L 119.738281 487.953125 L 103.707031 487.953125 Z M 103.707031 472.90625 " style=" stroke:none;fill-rule:nonzero;fill:rgb(13.72549%,12.156863%,12.54902%);fill-opacity:1;" />
<path d="M 135.769531 472.90625 L 151.800781 472.90625 L 151.800781 487.953125 L 135.769531 487.953125 Z M 135.769531 472.90625 " style=" stroke:none;fill-rule:nonzero;fill:rgb(13.72549%,12.156863%,12.54902%);fill-opacity:1;" />
<path d="M 167.832031 472.90625 L 183.859375 472.90625 L 183.859375 487.953125 L 167.832031 487.953125 Z M 167.832031 472.90625 " style=" stroke:none;fill-rule:nonzero;fill:rgb(13.72549%,12.156863%,12.54902%);fill-opacity:1;" />
<path d="M 199.890625 472.90625 L 215.921875 472.90625 L 215.921875 487.953125 L 199.890625 487.953125 Z M 199.890625 472.90625 " style=" stroke:none;fill-rule:nonzero;fill:rgb(13.72549%,12.156863%,12.54902%);fill-opacity:1;" />
<path d="M 231.953125 472.90625 L 247.984375 472.90625 L 247.984375 487.953125 L 231.953125 487.953125 Z M 231.953125 472.90625 " style=" stroke:none;fill-rule:nonzero;fill:rgb(13.72549%,12.156863%,12.54902%);fill-opacity:1;" />
<path d="M 264.015625 472.90625 L 280.046875 472.90625 L 280.046875 487.953125 L 264.015625 487.953125 Z M 264.015625 472.90625 " style=" stroke:none;fill-rule:nonzero;fill:rgb(13.72549%,12.156863%,12.54902%);fill-opacity:1;" />
<path d="M 296.078125 472.90625 L 312.105469 472.90625 L 312.105469 487.953125 L 296.078125 487.953125 Z M 296.078125 472.90625 " style=" stroke:none;fill-rule:nonzero;fill:rgb(13.72549%,12.156863%,12.54902%);fill-opacity:1;" />
<path d="M 328.136719 472.90625 L 344.167969 472.90625 L 344.167969 487.953125 L 328.136719 487.953125 Z M 328.136719 472.90625 " style=" stroke:none;fill-rule:nonzero;fill:rgb(13.72549%,12.156863%,12.54902%);fill-opacity:1;" />
<path d="M 360.199219 472.90625 L 376.230469 472.90625 L 376.230469 487.953125 L 360.199219 487.953125 Z M 360.199219 472.90625 " style=" stroke:none;fill-rule:nonzero;fill:rgb(13.72549%,12.156863%,12.54902%);fill-opacity:1;" />
<path d="M 392.261719 472.90625 L 408.292969 472.90625 L 408.292969 487.953125 L 392.261719 487.953125 Z M 392.261719 472.90625 " style=" stroke:none;fill-rule:nonzero;fill:rgb(13.72549%,12.156863%,12.54902%);fill-opacity:1;" />
<path d="M 32.0625 103.707031 L 47.109375 103.707031 L 47.109375 408.292969 L 32.0625 408.292969 Z M 32.0625 103.707031 " style=" stroke:none;fill-rule:nonzero;fill:rgb(13.72549%,12.156863%,12.54902%);fill-opacity:1;" />
<path d="M 464.890625 103.707031 L 479.9375 103.707031 L 479.9375 408.292969 L 464.890625 408.292969 Z M 464.890625 103.707031 " style=" stroke:none;fill-rule:nonzero;fill:rgb(13.72549%,12.156863%,12.54902%);fill-opacity:1;" />
<path d="M 407.800781 96.183594 L 336.152344 96.183594 L 336.152344 111.230469 L 392.753906 111.230469 L 392.753906 144.796875 L 280.539062 152.808594 L 280.539062 408.785156 L 231.460938 408.785156 L 231.460938 191.878906 L 216.414062 191.878906 L 216.414062 423.832031 L 295.585938 423.832031 L 295.585938 166.820312 L 407.800781 158.804688 Z M 407.800781 96.183594 " style=" stroke:none;fill-rule:nonzero;fill:rgb(13.72549%,12.156863%,12.54902%);fill-opacity:1;" />
<path d="M 312.105469 96.183594 L 104.199219 96.183594 L 104.199219 158.804688 L 223.402344 167.320312 L 224.472656 152.3125 L 119.246094 144.796875 L 119.246094 111.230469 L 312.105469 111.230469 Z M 312.105469 96.183594 " style=" stroke:none;fill-rule:nonzero;fill:rgb(13.72549%,12.156863%,12.54902%);fill-opacity:1;" />
<path d="M 247.984375 152.292969 L 264.015625 152.292969 L 264.015625 167.335938 L 247.984375 167.335938 Z M 247.984375 152.292969 " style=" stroke:none;fill-rule:nonzero;fill:rgb(100%,100%,100%);fill-opacity:1;" />
<path d="M 247.984375 184.355469 L 264.015625 184.355469 L 264.015625 199.398438 L 247.984375 199.398438 Z M 247.984375 184.355469 " style=" stroke:none;fill-rule:nonzero;fill:rgb(13.72549%,12.156863%,12.54902%);fill-opacity:1;" />
<path d="M 31.570312 32.0625 L 47.601562 32.0625 L 47.601562 47.109375 L 31.570312 47.109375 Z M 31.570312 32.0625 " style=" stroke:none;fill-rule:nonzero;fill:rgb(100%,100%,100%);fill-opacity:1;" />
<path d="M 464.398438 32.0625 L 480.429688 32.0625 L 480.429688 47.109375 L 464.398438 47.109375 Z M 464.398438 32.0625 " style=" stroke:none;fill-rule:nonzero;fill:rgb(13.72549%,12.156863%,12.54902%);fill-opacity:1;" />
<path d="M 464.398438 464.890625 L 480.429688 464.890625 L 480.429688 479.9375 L 464.398438 479.9375 Z M 464.398438 464.890625 " style=" stroke:none;fill-rule:nonzero;fill:rgb(100%,100%,100%);fill-opacity:1;" />
<path d="M 31.570312 464.890625 L 47.601562 464.890625 L 47.601562 479.9375 L 31.570312 479.9375 Z M 31.570312 464.890625 " style=" stroke:none;fill-rule:nonzero;fill:rgb(13.72549%,12.156863%,12.54902%);fill-opacity:1;" />
<path d="M 248.476562 215.921875 L 263.523438 215.921875 L 263.523438 384.246094 L 248.476562 384.246094 Z M 248.476562 215.921875 " style=" stroke:none;fill-rule:nonzero;fill:rgb(100%,100%,100%);fill-opacity:1;" />
</g>
</svg>